<!DOCTYPE svg PUBLIC "-//W3C//DTD SVG 20010904//EN" "http://www.w3.org/TR/2001/REC-SVG-20010904/DTD/svg10.dtd">
<svg version="1.0" xmlns="http://www.w3.org/2000/svg" width="717px" height="829px" viewBox="0 0 7170 8290" preserveAspectRatio="xMidYMid meet">
<g id="layer101" fill="#231f20" stroke="none">
 <path d="M2268 8169 c-448 -52 -585 -86 -957 -231 l-183 -72 23 -19 c87 -70 304 -141 471 -153 l92 -7 -40 -35 c-21 -18 -98 -78 -170 -133 l-130 -99 -522 0 -521 0 4 -27 c5 -30 35 -346 35 -371 0 -12 -10 -14 -50 -9 -28 3 -55 9 -60 12 -18 11 -11 43 16 74 30 36 27 38 -25 11 -43 -22 -78 -61 -87 -97 -16 -62 55 -112 159 -113 47 0 57 -3 57 -17 0 -10 5 -82 10 -161 10 -137 10 -144 -10 -172 -37 -52 -118 -233 -142 -315 -29 -106 -32 -306 -4 -405 24 -88 79 -196 143 -281 63 -83 61 -60 38 -436 -79 -1290 -155 -2091 -214 -2245 -10 -26 -7 -29 47 -65 31 -21 101 -81 154 -133 83 -82 103 -108 137 -181 72 -154 73 -238 2 -414 -22 -55 -41 -106 -41 -112 0 -7 -4 -13 -9 -13 -4 0 -12 51 -17 113 -9 107 -8 117 19 206 15 51 27 102 27 113 0 33 -111 184 -123 167 -2 -2 -14 -49 -26 -104 -13 -55 -34 -134 -47 -175 l-23 -75 48 -533 c27 -293 51 -535 55 -539 3 -3 6 6 6 22 0 36 44 232 80 354 15 53 35 132 45 175 18 85 95 318 141 431 26 62 29 82 29 175 -1 121 -21 192 -85 300 l-38 65 13 105 c29 219 37 413 42 995 6 716 -16 1714 -57 2485 -6 102 -10 205 -10 230 l0 45 -21 -25 c-11 -14 -45 -76 -76 -138 l-56 -113 8 -269 c4 -149 4 -270 1 -270 -11 0 -65 118 -80 177 -23 86 -21 232 4 329 24 96 90 236 160 338 148 220 417 481 596 581 185 103 461 296 670 471 l121 101 167 7 166 6 -71 -62 c-40 -35 -100 -98 -133 -140 l-61 -76 -148 -1 -147 -1 -101 -80 -101 -80 97 0 c89 0 97 -2 90 -17 -16 -41 -54 -205 -61 -262 -3 -33 -9 -61 -12 -61 -3 0 -31 24 -62 54 -84 80 -127 99 -235 103 l-90 3 51 -13 c159 -41 311 -221 359 -425 29 -118 52 -175 110 -262 67 -100 78 -102 39 -7 -67 166 -77 222 -78 427 -1 114 4 200 11 225 6 22 16 58 22 81 8 31 19 45 50 62 48 27 75 29 68 5 -37 -120 -48 -171 -56 -251 -63 -617 508 -1181 1359 -1341 324 -61 703 -52 1030 25 524 123 955 424 1143 799 75 150 116 347 102 494 -6 67 -41 226 -60 274 -10 24 28 23 71 -4 37 -22 55 -69 75 -189 16 -96 12 -294 -6 -386 -18 -86 -56 -205 -87 -269 l-19 -40 41 45 c56 63 116 188 144 300 53 219 194 390 356 434 l55 15 -72 0 c-105 1 -168 -25 -254 -106 l-69 -65 0 35 c0 45 -25 176 -49 254 l-19 62 93 3 94 3 -99 78 -99 77 -145 0 -144 0 -52 65 c-28 36 -88 99 -133 140 l-82 76 164 -7 164 -7 101 -85 c215 -180 475 -364 676 -478 220 -124 523 -429 661 -665 129 -221 166 -439 105 -624 -30 -94 -69 -162 -73 -130 -2 11 0 133 4 270 l8 250 -62 126 c-34 69 -69 131 -77 138 -14 12 -16 7 -16 -45 0 -33 -5 -144 -10 -249 -40 -796 -64 -1821 -57 -2480 6 -532 15 -741 42 -956 l15 -117 -35 -58 c-100 -165 -118 -330 -55 -489 56 -142 101 -281 141 -435 21 -85 53 -207 69 -270 17 -63 37 -149 44 -190 8 -41 16 -68 19 -60 3 8 26 250 52 537 l46 522 -29 93 c-17 51 -38 130 -48 175 -9 46 -21 83 -25 83 -12 0 -75 -78 -99 -124 l-23 -42 28 -95 c30 -97 33 -149 16 -284 -9 -70 -6 -74 -71 96 -34 89 -40 116 -40 180 0 81 27 173 75 256 35 61 181 206 262 261 l61 42 -13 43 c-61 202 -165 1364 -221 2463 l-7 131 46 56 c60 74 109 164 143 262 25 72 28 94 29 220 0 104 -5 156 -18 203 -26 95 -73 208 -122 292 l-43 75 8 115 c5 63 9 134 9 156 l1 42 73 3 c116 6 170 60 134 134 -17 36 -68 78 -107 90 l-25 7 26 -28 c15 -16 30 -39 33 -51 6 -19 2 -23 -31 -32 -21 -6 -51 -11 -66 -11 -28 0 -28 0 -23 53 3 28 11 106 16 172 6 66 13 135 17 153 l5 32 -521 0 -522 0 -57 42 c-31 23 -109 83 -172 132 l-115 91 85 7 c167 15 334 66 465 143 l47 27 -174 69 c-219 88 -386 142 -513 168 -118 24 -407 66 -554 81 -134 13 -351 13 -351 0 0 -5 17 -10 38 -10 51 0 151 -25 231 -57 110 -44 198 -103 305 -205 l101 -97 -45 -1 c-66 0 -207 19 -270 37 -92 26 -189 81 -249 140 l-55 56 -336 40 c-307 36 -356 40 -590 40 -236 0 -280 -2 -596 -40 l-342 -40 -37 -42 c-54 -60 -141 -114 -231 -143 -81 -27 -253 -52 -314 -46 l-35 3 120 108 c99 89 137 117 220 158 104 51 230 89 297 89 21 0 38 5 38 10 0 16 -269 10 -442 -11z m-231 -185 c2 -6 -40 -51 -93 -99 l-97 -88 -116 8 c-170 10 -313 37 -295 55 15 15 203 80 319 110 87 23 128 29 194 27 51 -1 86 -6 88 -13z m3375 -13 c140 -36 324 -103 321 -116 -3 -16 -99 -34 -255 -47 l-146 -12 -34 27 c-84 67 -171 155 -164 165 14 23 157 14 278 -17z m-1537 -31 c330 -44 627 -150 863 -307 184 -122 359 -323 429 -494 65 -155 80 -348 38 -504 -23 -85 -95 -229 -153 -305 -394 -519 -1290 -751 -2073 -536 -208 57 -387 137 -554 249 -116 77 -285 247 -349 350 -180 290 -178 610 5 892 67 103 228 263 344 341 260 177 589 288 956 324 111 10 381 5 494 -10z m-2780 -696 c-11 -9 -78 -45 -150 -80 -138 -68 -279 -119 -362 -130 l-50 -6 -7 78 c-4 44 -9 96 -12 117 l-6 37 304 0 c278 -1 301 -2 283 -16z m5562 -36 c-4 -29 -9 -82 -13 -117 l-6 -63 -52 6 c-81 11 -220 61 -361 130 -207 102 -217 95 134 96 l303 0 -5 -52z m-6015 -325 c-27 -32 -59 -66 -70 -76 -19 -18 -20 -17 -27 38 -3 31 -4 59 -1 62 4 5 100 26 139 32 5 0 -13 -25 -41 -56z m5913 42 c73 -12 75 -13 74 -53 -2 -91 -8 -91 -83 -7 -42 46 -62 75 -50 72 10 -3 37 -9 59 -12z m140 -2943 c55 -555 88 -822 126 -1000 11 -52 19 -95 17 -96 -2 -1 -26 -21 -55 -44 l-51 -42 -6 27 c-27 132 -54 549 -66 1012 -11 438 -12 496 -4 488 4 -3 21 -159 39 -345z m-6179 6 c-10 -471 -27 -798 -56 -1053 -18 -150 -12 -143 -73 -93 -29 24 -53 43 -54 44 -2 0 6 41 16 90 37 171 87 571 131 1044 11 124 23 240 26 258 14 84 16 6 10 -290z"/>
 <path d="M6616 1115 c-9 -143 -19 -261 -21 -263 -2 -3 -38 -19 -80 -37 -195 -85 -352 -208 -413 -323 -18 -33 -32 -67 -32 -76 0 -15 -207 -16 -2480 -16 l-2480 0 -11 28 c-39 103 -117 196 -228 271 -59 40 -210 118 -268 139 l-29 10 -13 183 c-7 101 -15 218 -18 259 l-6 74 -14 -39 c-27 -75 -55 -210 -79 -375 -34 -233 -38 -212 53 -245 205 -72 381 -193 434 -297 11 -22 23 -68 26 -103 l6 -65 2628 0 2629 0 0 62 c0 78 23 127 92 195 84 83 260 178 421 227 21 7 21 27 2 181 -18 138 -55 323 -82 410 l-19 60 -18 -260z"/>
 </g>

</svg>