<!DOCTYPE svg PUBLIC "-//W3C//DTD SVG 20010904//EN" "http://www.w3.org/TR/2001/REC-SVG-20010904/DTD/svg10.dtd">
<svg version="1.0" xmlns="http://www.w3.org/2000/svg" width="1482px" height="373px" viewBox="0 0 12000 3020" preserveAspectRatio="xMidYMid meet">
<g id="layer101" fill="#221c1b" stroke="none">
 <path d="M50 1510 l0 -1470 370 0 c245 0 370 3 370 10 0 13 105 120 117 120 6 0 18 9 28 20 23 25 43 25 97 1 68 -30 183 -59 308 -77 77 -11 122 -23 135 -35 36 -32 72 -34 108 -6 32 24 69 33 232 54 22 2 97 23 166 45 l127 40 55 -40 c30 -23 72 -62 92 -87 l37 -45 364 0 364 0 0 150 0 150 4230 0 4231 0 24 28 c13 15 25 35 25 45 0 9 3 17 8 17 4 0 18 18 32 40 13 22 30 42 37 44 7 3 13 12 13 21 0 8 4 15 8 15 4 0 15 12 24 28 30 51 215 232 237 232 5 0 23 8 40 17 l31 18 0 667 0 667 -37 17 c-37 18 -183 131 -183 143 0 3 -21 29 -45 56 -24 28 -51 58 -60 68 -8 9 -15 21 -15 26 0 5 -7 14 -15 21 -16 13 -75 97 -75 106 0 3 -10 18 -22 34 l-22 30 -4233 0 -4233 0 0 150 0 150 -361 0 -361 0 -57 -58 c-31 -31 -75 -70 -99 -86 l-43 -29 -47 20 c-91 40 -321 93 -404 93 -14 0 -40 11 -56 25 -17 14 -43 25 -59 25 -19 0 -38 -9 -53 -25 -15 -16 -34 -25 -54 -25 -80 0 -284 -46 -402 -91 -47 -18 -84 -18 -84 1 0 5 -9 11 -20 15 -22 7 -105 87 -121 116 -9 18 -26 19 -379 19 l-370 0 0 -1470z m1430 1315 c7 -9 29 -15 55 -15 26 0 48 6 55 15 7 8 24 15 39 15 48 0 245 -39 301 -59 l55 -20 -450 0 -450 0 55 20 c55 20 238 56 296 58 17 1 37 -6 44 -14z m-770 -60 c23 -24 165 -125 176 -125 3 0 26 -10 52 -21 97 -45 152 -49 597 -49 460 0 516 5 618 58 107 54 133 71 182 116 l50 46 76 0 c78 0 155 -20 193 -49 48 -38 116 -107 116 -119 0 -7 7 -24 16 -37 40 -62 44 -140 43 -1075 0 -937 -2 -985 -44 -1075 -62 -132 -181 -205 -334 -205 -66 0 -66 1 -125 54 -61 56 -202 133 -271 148 -122 26 -198 29 -569 25 -317 -3 -402 -7 -451 -20 -117 -32 -235 -96 -315 -173 -33 -31 -41 -34 -99 -34 -119 0 -222 46 -289 128 -17 23 -32 43 -32 47 0 3 -9 24 -19 48 -11 23 -24 80 -30 126 -15 114 -15 1761 0 1868 29 217 157 339 355 342 74 1 82 -1 104 -24z m10071 -249 c126 -47 165 -64 224 -94 l60 -31 -4022 -1 -4023 0 0 75 0 75 3849 0 3848 0 64 -24z m639 -12 c14 -19 35 -48 48 -64 12 -15 22 -32 22 -37 0 -5 8 -16 18 -25 9 -9 31 -33 47 -54 55 -71 119 -136 188 -191 l67 -54 0 -67 0 -67 -29 35 c-52 63 -179 190 -190 190 -5 0 -14 6 -18 13 -4 7 -19 20 -33 30 -14 9 -43 30 -64 45 -66 46 -88 59 -176 109 -47 26 -98 56 -115 66 -16 9 -46 24 -65 33 -19 9 -53 24 -76 35 -22 10 -45 19 -52 19 -6 0 -14 5 -17 10 -4 7 67 10 207 10 l213 -1 25 -35z m-8270 -994 l0 -800 -65 0 -65 0 0 800 0 800 65 0 65 0 0 -800z m8145 763 c28 -18 55 -36 60 -40 6 -5 38 -26 72 -48 35 -22 63 -43 63 -47 0 -5 5 -8 11 -8 7 0 22 -10 33 -22 12 -13 44 -43 72 -68 85 -79 169 -191 192 -259 8 -22 12 -115 12 -270 0 -232 -6 -284 -37 -322 -6 -8 -18 -27 -26 -44 -14 -27 -39 -57 -110 -135 -12 -14 -58 -54 -102 -90 -71 -59 -99 -79 -156 -115 -29 -18 -73 -47 -104 -69 l-30 -21 -4007 -3 -4008 -2 0 800 0 800 4008 -2 4007 -3 50 -32z m478 -1358 c-71 -51 -283 -275 -283 -299 0 -3 -7 -14 -16 -23 -8 -10 -29 -37 -45 -60 l-29 -43 -213 1 c-161 0 -206 3 -187 11 63 27 296 146 334 171 11 6 43 27 70 44 156 99 241 171 366 310 l25 28 3 -60 c3 -56 1 -61 -25 -80z m-778 -320 c-38 -19 -86 -40 -105 -46 -19 -6 -39 -15 -45 -19 -5 -4 -33 -14 -62 -23 -48 -16 -350 -17 -3907 -17 l-3856 0 0 70 0 70 4023 0 4022 -1 -70 -34z m-9060 -333 l40 -7 -70 -22 c-38 -11 -118 -28 -176 -38 -105 -16 -107 -16 -147 5 -43 23 -72 21 -104 -7 -15 -13 -29 -13 -125 1 -59 9 -142 27 -183 39 -72 21 -74 22 -40 28 49 9 757 9 805 1z"/>
 </g>

</svg>