<!DOCTYPE svg PUBLIC "-//W3C//DTD SVG 20010904//EN" "http://www.w3.org/TR/2001/REC-SVG-20010904/DTD/svg10.dtd">
<svg version="1.0" xmlns="http://www.w3.org/2000/svg" width="1590px" height="237px" viewBox="0 0 12000 1790" preserveAspectRatio="xMidYMid meet">
<g id="layer101" fill="#231f20" stroke="none">
 <path d="M460 1780 c0 -5 -13 -16 -30 -25 -33 -17 -156 -137 -211 -205 -41 -50 -129 -196 -129 -212 0 -5 -6 -22 -14 -36 -46 -91 -67 -200 -73 -375 -5 -167 4 -239 48 -372 24 -73 109 -245 121 -245 4 0 8 -4 8 -10 0 -10 20 -37 53 -72 9 -10 17 -20 17 -23 0 -11 110 -115 167 -158 l61 -47 597 0 596 0 77 59 c43 32 83 66 91 75 12 15 397 16 4943 16 4921 0 4930 0 4935 20 3 11 9 20 13 20 4 0 12 10 17 22 31 67 209 248 242 248 8 0 11 135 11 433 l0 433 -38 22 c-34 19 -78 62 -156 152 -31 35 -86 119 -86 131 0 5 -1825 9 -4932 9 l-4933 1 -55 50 c-30 28 -67 58 -82 67 -16 9 -28 20 -28 24 0 4 -277 8 -615 8 -393 0 -615 -4 -615 -10z m656 -136 c27 -9 54 -20 59 -24 17 -12 176 -60 265 -80 19 -5 78 -18 130 -30 52 -11 121 -26 154 -31 87 -15 118 -31 141 -75 11 -22 23 -41 26 -44 10 -8 58 -113 80 -176 22 -64 49 -222 49 -289 0 -59 -27 -222 -45 -275 -37 -106 -75 -182 -127 -251 -24 -31 -36 -38 -90 -48 -254 -48 -559 -126 -593 -152 -6 -4 -30 -14 -55 -23 -36 -13 -96 -16 -311 -16 l-266 0 -63 56 c-34 30 -80 76 -102 102 -23 26 -45 49 -49 50 -5 2 -9 8 -9 12 0 5 -13 28 -28 52 -176 265 -197 604 -55 893 39 79 66 125 76 125 4 0 7 6 7 14 0 8 3 16 8 18 4 2 25 25 46 52 21 26 68 72 104 102 l66 54 266 0 c220 0 275 -3 316 -16z m514 6 c0 -5 4 -10 10 -10 5 0 36 -24 67 -54 l57 -54 -39 8 c-82 16 -192 50 -263 81 -23 11 -51 19 -62 19 -10 0 -22 5 -25 10 -4 6 40 10 124 10 81 0 131 -4 131 -10z m705 -116 c-68 -25 -186 -44 -273 -44 -75 0 -86 2 -103 23 -10 12 -18 25 -19 30 0 4 98 7 218 7 203 -1 214 -2 177 -16z m8950 -8 c22 -10 56 -25 75 -33 31 -13 129 -61 208 -102 15 -8 28 -18 30 -23 2 -4 8 -8 13 -8 11 0 72 -42 77 -52 2 -5 8 -8 13 -8 17 0 139 -123 174 -176 l35 -52 0 -171 c0 -157 -2 -173 -22 -208 -12 -21 -26 -40 -30 -41 -4 -2 -8 -8 -8 -14 0 -14 -121 -129 -173 -164 -23 -16 -44 -31 -47 -34 -16 -16 -201 -111 -300 -154 l-84 -36 -4389 0 c-4161 0 -4391 1 -4420 17 -18 10 -34 21 -37 25 -8 11 -121 45 -177 55 l-53 8 34 66 c34 64 56 124 92 249 28 98 26 365 -4 470 -32 115 -65 197 -107 270 -13 22 -13 26 3 32 9 4 31 7 48 7 54 2 155 41 213 84 23 16 243 17 4410 15 4259 -3 4387 -4 4426 -22z m411 -43 c62 -85 135 -165 180 -195 30 -20 34 -28 34 -66 0 -39 -2 -42 -15 -28 -8 8 -15 17 -15 20 0 10 -80 86 -90 86 -5 0 -10 4 -10 8 0 10 -96 82 -109 82 -5 0 -11 4 -13 8 -6 14 -203 121 -268 145 -8 3 46 6 121 6 l135 1 50 -67z m-9574 -78 c10 -16 22 -39 27 -50 79 -174 87 -199 106 -324 19 -118 19 -154 0 -272 -18 -113 -39 -179 -100 -304 l-46 -95 -49 0 -50 0 25 40 c14 22 25 46 25 53 0 7 7 22 15 33 8 10 15 27 15 36 0 10 6 32 14 50 31 73 46 176 46 323 0 147 -15 250 -46 323 -8 18 -14 39 -14 47 0 9 -4 23 -9 33 -5 9 -23 45 -40 80 l-30 63 46 -3 c39 -3 49 -8 65 -33z m9788 -840 c0 -25 -5 -45 -11 -45 -10 0 -85 -65 -120 -105 -50 -56 -71 -84 -96 -122 l-27 -43 -123 0 c-68 0 -123 2 -123 5 0 2 39 24 88 48 48 23 106 55 129 70 24 15 47 27 53 27 5 0 10 3 10 8 0 4 21 21 45 37 25 17 73 60 108 97 34 37 63 67 65 68 1 0 2 -20 2 -45z m-9685 -276 c33 -6 74 -17 90 -25 27 -12 8 -14 -173 -14 l-203 0 18 24 c27 37 116 41 268 15z m-477 -37 c-1 -5 -32 -34 -67 -65 l-64 -57 -131 1 c-138 0 -137 -1 -36 39 82 32 180 63 250 79 49 12 52 12 48 3z"/>
 </g>

</svg>