<!DOCTYPE svg PUBLIC "-//W3C//DTD SVG 20010904//EN" "http://www.w3.org/TR/2001/REC-SVG-20010904/DTD/svg10.dtd">
<svg version="1.0" xmlns="http://www.w3.org/2000/svg" width="1647px" height="527px" viewBox="0 0 12000 3840" preserveAspectRatio="xMidYMid meet">
<g id="layer101" fill="#231f20" stroke="none">
 <path d="M1675 3690 c-17 -19 -17 -22 0 -59 9 -22 14 -44 11 -50 -4 -6 -35 -11 -69 -11 -64 0 -220 -27 -317 -55 -30 -9 -66 -19 -80 -22 -14 -3 -29 -9 -35 -13 -5 -4 -38 -17 -72 -30 -35 -12 -63 -25 -63 -29 0 -3 105 -6 233 -7 229 -1 243 -2 500 -46 40 -7 67 -16 67 -24 0 -6 7 -15 16 -18 33 -13 4 -18 -43 -8 -77 17 -211 40 -298 52 -102 13 -463 13 -541 0 -114 -20 -209 -42 -242 -56 -18 -8 -40 -14 -49 -14 -20 0 -222 -98 -241 -117 -7 -7 -16 -13 -20 -13 -4 0 -23 -15 -43 -33 -20 -17 -45 -39 -55 -48 -34 -28 -104 -110 -104 -121 0 -10 24 5 45 28 13 15 163 124 170 124 3 0 22 10 43 23 55 35 142 69 190 77 l42 7 -72 -66 c-125 -115 -197 -196 -265 -296 -26 -38 -50 -72 -53 -75 -3 -3 -14 -21 -23 -40 -10 -19 -27 -50 -38 -69 -27 -46 -86 -188 -114 -276 -64 -202 -91 -474 -64 -650 22 -144 28 -181 34 -210 11 -53 48 -170 57 -179 4 -6 8 -16 8 -24 0 -13 37 -101 67 -157 57 -109 69 -131 78 -142 6 -6 32 -43 59 -82 27 -39 53 -71 58 -71 4 0 8 -5 8 -11 0 -15 102 -122 222 -231 l33 -31 -44 6 c-59 7 -217 88 -315 161 -45 32 -83 62 -86 65 -15 18 -40 32 -40 23 0 -11 71 -94 104 -121 10 -9 27 -24 37 -33 59 -56 219 -141 339 -181 173 -58 306 -77 532 -77 226 0 380 17 581 64 32 8 57 10 57 5 0 -5 -7 -12 -15 -15 -8 -4 -15 -12 -15 -19 0 -8 -29 -17 -77 -25 -43 -6 -118 -19 -168 -27 -59 -10 -170 -15 -322 -16 -128 -1 -233 -5 -233 -9 0 -3 12 -11 28 -16 157 -57 226 -80 277 -91 33 -7 80 -17 105 -23 25 -6 89 -14 143 -17 l97 -6 -22 -44 c-24 -50 -17 -74 24 -79 18 -2 30 5 44 25 25 37 42 65 50 83 4 8 32 48 61 87 29 40 53 77 53 82 0 5 3 11 8 13 4 1 27 28 52 58 138 171 299 298 445 352 116 44 386 101 401 86 5 -6 -35 -47 -89 -94 -40 -35 -173 -134 -180 -134 -3 0 -22 -11 -42 -24 -53 -36 -197 -104 -270 -126 -22 -7 -58 -18 -80 -26 -22 -7 -60 -16 -85 -20 -31 -4 -53 -16 -75 -38 -53 -56 -57 -62 -98 -158 l-17 -38 53 0 c48 0 120 12 257 45 62 15 103 29 225 75 46 17 152 74 207 111 33 21 62 39 65 39 8 0 98 64 101 73 2 4 8 7 13 7 6 0 19 9 31 20 22 20 36 20 4323 20 4155 0 4302 1 4318 18 10 10 17 21 17 25 0 8 59 95 83 122 10 11 27 35 38 52 12 18 25 33 30 33 5 0 9 5 9 11 0 15 164 179 179 179 6 0 11 4 11 8 0 5 18 16 40 26 l40 17 0 769 0 768 -32 16 c-18 9 -42 22 -53 29 -30 19 -185 174 -185 185 0 6 -4 12 -9 14 -12 4 -151 195 -151 206 0 5 -8 16 -18 25 -17 16 -331 17 -4318 17 -4286 0 -4300 0 -4322 20 -12 11 -26 20 -32 20 -5 0 -10 4 -10 8 0 21 -366 232 -402 232 -8 0 -18 4 -24 8 -12 11 -123 47 -189 61 -27 6 -80 18 -116 26 -36 8 -91 15 -121 15 l-57 0 27 -62 c15 -35 32 -67 37 -73 6 -5 23 -26 37 -46 20 -27 38 -39 75 -48 150 -37 237 -67 338 -116 93 -45 240 -139 294 -187 17 -16 33 -28 35 -28 9 0 97 -93 92 -97 -6 -7 -192 24 -256 42 -30 9 -71 20 -92 24 -45 10 -198 85 -226 111 -12 11 -24 20 -27 20 -3 0 -22 15 -42 33 -116 103 -203 201 -296 332 -31 44 -60 85 -64 90 -5 6 -17 26 -27 45 -30 55 -66 100 -80 100 -7 0 -21 -9 -31 -20z m-240 -425 c72 -8 164 -22 205 -30 41 -9 100 -20 130 -26 117 -22 288 -77 312 -101 10 -10 23 -18 28 -18 6 0 10 -4 10 -9 0 -5 17 -20 38 -32 20 -13 39 -25 42 -28 3 -4 19 -13 35 -23 108 -59 222 -108 305 -129 67 -17 234 -39 296 -39 61 0 64 -1 90 -37 16 -21 33 -43 38 -48 15 -15 36 -47 42 -67 4 -10 10 -18 15 -18 5 0 9 -4 9 -10 0 -5 13 -31 28 -57 15 -26 40 -79 56 -118 56 -141 55 -136 92 -305 25 -116 22 -395 -6 -525 -21 -98 -49 -191 -74 -250 -7 -16 -19 -46 -26 -65 -8 -19 -27 -56 -42 -81 -15 -25 -28 -51 -28 -58 0 -6 -4 -11 -10 -11 -5 0 -10 -5 -10 -10 0 -6 -25 -44 -55 -85 l-56 -75 -68 0 c-134 0 -355 -45 -439 -89 -9 -5 -37 -19 -62 -30 -46 -21 -121 -62 -130 -71 -3 -3 -23 -17 -45 -31 -22 -15 -53 -39 -70 -53 -16 -15 -41 -29 -55 -32 -14 -3 -41 -11 -60 -19 -43 -16 -136 -40 -210 -55 -30 -6 -75 -16 -100 -21 -25 -6 -79 -14 -120 -19 -41 -5 -122 -14 -180 -20 -111 -13 -102 -15 -203 36 -16 8 -33 14 -38 14 -10 0 -220 128 -229 139 -3 3 -23 19 -45 36 -87 64 -226 215 -323 351 -53 74 -154 302 -171 385 -4 19 -10 40 -14 45 -16 27 -37 218 -37 342 0 129 20 317 36 344 4 6 11 28 15 47 18 87 114 303 171 385 65 93 134 178 194 239 70 71 193 169 249 201 17 9 44 25 60 36 17 10 59 33 95 49 36 17 76 37 90 45 33 19 70 19 225 1z m2005 -239 c0 -6 -213 -71 -281 -86 -63 -14 -56 -17 -123 58 l-30 32 217 0 c119 0 217 -2 217 -4z m7327 -7 c15 -6 37 -15 48 -19 11 -5 43 -18 70 -30 28 -12 59 -25 70 -30 105 -43 385 -196 405 -221 3 -3 19 -13 35 -22 17 -8 39 -24 50 -34 11 -10 43 -36 70 -58 100 -79 192 -189 241 -284 l24 -49 0 -352 0 -352 -24 -49 c-47 -92 -136 -198 -231 -274 -33 -26 -62 -51 -65 -55 -3 -4 -25 -20 -50 -35 -24 -16 -51 -34 -58 -42 -7 -7 -17 -13 -22 -13 -5 0 -15 -6 -22 -13 -7 -7 -29 -21 -48 -30 -19 -10 -48 -26 -65 -36 -56 -33 -214 -111 -290 -142 -11 -4 -38 -16 -60 -25 -22 -10 -56 -23 -75 -30 -29 -11 -663 -14 -3572 -14 -3466 0 -3537 0 -3575 19 -77 39 -130 61 -144 61 -8 0 -19 4 -24 8 -9 7 -39 17 -175 58 -25 7 -62 16 -82 19 -21 3 -38 11 -38 16 0 6 21 44 46 86 154 254 234 540 234 842 0 230 -35 407 -127 636 -32 77 -51 116 -103 205 -5 8 -20 34 -34 57 l-24 42 46 7 c26 4 58 11 72 17 14 5 41 13 60 18 71 16 255 87 310 119 24 14 7093 13 7127 -1z m640 -29 c13 -19 30 -43 38 -53 8 -9 15 -21 15 -26 0 -5 4 -11 8 -13 5 -1 24 -23 43 -48 77 -102 211 -233 251 -246 15 -4 18 -16 18 -76 l0 -72 -30 35 c-65 72 -162 169 -171 169 -5 0 -9 4 -9 8 0 12 -238 182 -254 182 -3 0 -34 17 -68 38 -35 21 -79 44 -98 52 -19 7 -40 17 -47 23 -21 16 -87 47 -100 47 -6 0 -15 5 -18 10 -4 7 60 10 196 8 l203 -3 23 -35z m373 -1679 c0 -59 -3 -71 -18 -75 -39 -13 -182 -152 -252 -246 -14 -18 -31 -39 -37 -46 -7 -7 -13 -15 -13 -18 0 -3 -7 -14 -15 -23 -8 -10 -25 -34 -38 -53 l-23 -35 -209 -2 -210 -2 55 25 c30 14 62 29 70 34 8 6 25 15 38 20 58 26 70 32 117 60 28 17 59 35 70 40 20 10 49 27 69 43 6 4 49 35 96 68 47 33 87 64 88 70 2 5 7 9 12 9 9 0 102 92 158 157 20 24 38 43 40 43 1 0 2 -31 2 -69z m-8613 -412 c97 -22 184 -48 253 -77 19 -8 -32 -11 -194 -11 l-218 -1 32 37 c18 20 37 42 44 49 14 16 24 17 83 3z"/>
 </g>

</svg>